<?xml version="1.0" encoding="UTF-8" standalone="no"?>
<!DOCTYPE svg PUBLIC "-//W3C//DTD SVG 1.1//EN" "http://www.w3.org/Graphics/SVG/1.1/DTD/svg11.dtd">
<svg version="1.1" xmlns="http://www.w3.org/2000/svg" xmlns:xlink="http://www.w3.org/1999/xlink" preserveAspectRatio="xMidYMid meet" viewBox="26.499947547875053 7.105427357601002e-15 203.04909091366346 55.00000000000001" width="203.05" height="55"><defs><path d="M63 16.5C63.95 16.5 71.55 16.5 72.5 16.5C72.88 15.44 73.89 14.67 75.08 14.67C76.6 14.67 77.83 15.9 77.83 17.42C77.83 18.93 76.6 20.17 75.08 20.17C73.89 20.17 72.88 19.4 72.5 18.33C71.55 18.33 63.95 18.33 63 18.33C62.62 19.4 61.61 20.17 60.42 20.17C58.9 20.17 57.67 18.93 57.67 17.42C57.67 15.9 58.9 14.67 60.42 14.67C61.61 14.67 62.62 15.44 63 16.5ZM76 17.42C76 16.91 75.59 16.5 75.08 16.5C74.58 16.5 74.17 16.91 74.17 17.42C74.17 17.92 74.58 18.33 75.08 18.33C75.59 18.33 76 17.92 76 17.42ZM61.33 17.42C61.33 16.91 60.92 16.5 60.42 16.5C59.91 16.5 59.5 16.91 59.5 17.42C59.5 17.92 59.91 18.33 60.42 18.33C60.92 18.33 61.33 17.92 61.33 17.42Z" id="aSILnkuy7"></path><path d="M53.08 14.67C53.08 14.42 53.18 14.19 53.35 14.02C53.72 13.65 56.65 10.72 57.02 10.35C57.19 10.18 57.42 10.08 57.67 10.08C57.96 10.08 60.29 10.08 60.59 10.08C60.96 9.02 61.97 8.25 63.17 8.25C64.68 8.25 65.92 9.48 65.92 11C65.92 12.52 64.68 13.75 63.17 13.75C61.97 13.75 60.96 12.98 60.59 11.92C60.42 11.92 59.57 11.92 58.05 11.92L54.92 15.05C54.92 18.22 54.92 19.98 54.92 20.34C55.98 20.71 56.75 21.72 56.75 22.92C56.75 24.43 55.52 25.67 54 25.67C52.48 25.67 51.25 24.43 51.25 22.92C51.25 21.72 52.02 20.71 53.08 20.34C53.08 19.2 53.08 15.23 53.08 14.67ZM64.08 11C64.08 10.49 63.67 10.08 63.17 10.08C62.66 10.08 62.25 10.49 62.25 11C62.25 11.51 62.66 11.92 63.17 11.92C63.67 11.92 64.08 11.51 64.08 11ZM54.92 22.92C54.92 22.41 54.51 22 54 22C53.49 22 53.08 22.41 53.08 22.92C53.08 23.42 53.49 23.83 54 23.83C54.51 23.83 54.92 23.42 54.92 22.92Z" id="c2k34ICpuI"></path><path d="M37.76 24.11C37.87 24 38.39 23.48 39.33 22.54C39.33 17.26 39.33 14.34 39.33 13.75C39.33 13.51 39.43 13.27 39.6 13.1C40.52 12.18 47.86 4.85 48.78 3.93C48.6 3.57 48.5 3.17 48.5 2.75C48.5 1.23 49.73 0 51.25 0C52.77 0 54 1.23 54 2.75C54 4.27 52.77 5.5 51.25 5.5C50.83 5.5 50.43 5.4 50.07 5.22C49.48 5.82 46.51 8.79 41.17 14.13C41.17 19.4 41.17 22.33 41.17 22.92C41.17 23.16 41.07 23.39 40.9 23.56C40.71 23.75 39.24 25.22 39.06 25.41C39.23 25.76 39.33 26.16 39.33 26.58C39.33 28.1 38.1 29.33 36.58 29.33C35.07 29.33 33.83 28.1 33.83 26.58C33.83 25.07 35.07 23.83 36.58 23.83C37.01 23.83 37.4 23.94 37.76 24.11ZM52.17 2.75C52.17 2.24 51.76 1.83 51.25 1.83C50.74 1.83 50.33 2.24 50.33 2.75C50.33 3.26 50.74 3.67 51.25 3.67C51.76 3.67 52.17 3.26 52.17 2.75ZM37.5 26.58C37.5 26.08 37.09 25.67 36.58 25.67C36.08 25.67 35.67 26.08 35.67 26.58C35.67 27.09 36.08 27.5 36.58 27.5C37.09 27.5 37.5 27.09 37.5 26.58Z" id="b4VJRha87M"></path><path d="M28.33 9.17C28.33 8.92 28.43 8.69 28.6 8.52C29.24 7.88 34.38 2.74 35.02 2.1C35.19 1.93 35.42 1.83 35.67 1.83C36.14 1.83 39.94 1.83 40.42 1.83C40.8 0.77 41.81 0 43 0C44.52 0 45.75 1.23 45.75 2.75C45.75 4.27 44.52 5.5 43 5.5C41.81 5.5 40.8 4.73 40.42 3.67C40.13 3.67 38.67 3.67 36.05 3.67L30.17 9.55C30.17 11.62 30.17 12.77 30.17 13C31.23 13.38 32 14.39 32 15.58C32 17.1 30.77 18.33 29.25 18.33C27.73 18.33 26.5 17.1 26.5 15.58C26.5 14.39 27.27 13.38 28.33 13C28.33 12.23 28.33 9.55 28.33 9.17ZM43.92 2.75C43.92 2.24 43.51 1.83 43 1.83C42.49 1.83 42.08 2.24 42.08 2.75C42.08 3.26 42.49 3.67 43 3.67C43.51 3.67 43.92 3.26 43.92 2.75ZM30.17 15.58C30.17 15.08 29.76 14.67 29.25 14.67C28.74 14.67 28.33 15.08 28.33 15.58C28.33 16.09 28.74 16.5 29.25 16.5C29.76 16.5 30.17 16.09 30.17 15.58Z" id="j3Xu4qMim4"></path><path d="M41.17 36.5C40.1 36.12 39.33 35.11 39.33 33.92C39.33 32.4 40.57 31.17 42.08 31.17C43.28 31.17 44.29 31.94 44.66 33C45.61 33 53.22 33 54.17 33C54.55 31.94 55.56 31.17 56.75 31.17C57.94 31.17 58.95 31.94 59.33 33C59.68 33 61.45 33 64.62 33C66.66 30.96 67.8 29.82 68.03 29.59C67.85 29.24 67.75 28.84 67.75 28.42C67.75 26.9 68.98 25.67 70.5 25.67C72.02 25.67 73.25 26.9 73.25 28.42C73.25 29.93 72.02 31.17 70.5 31.17C70.08 31.17 69.68 31.06 69.32 30.89C68.95 31.26 66.02 34.2 65.65 34.56C65.48 34.74 65.24 34.83 65 34.83C64.43 34.83 59.9 34.83 59.33 34.83C58.95 35.9 57.94 36.67 56.75 36.67C55.56 36.67 54.55 35.9 54.17 34.83C53.22 34.83 45.61 34.83 44.66 34.83C44.39 35.61 43.78 36.22 43 36.5C43 37.81 43 48.35 43 49.67C44.06 50.05 44.83 51.06 44.83 52.25C44.83 53.77 43.6 55 42.08 55C40.57 55 39.33 53.77 39.33 52.25C39.33 51.06 40.1 50.05 41.17 49.67C41.17 47.03 41.17 37.81 41.17 36.5ZM71.42 28.42C71.42 27.91 71.01 27.5 70.5 27.5C69.99 27.5 69.58 27.91 69.58 28.42C69.58 28.92 69.99 29.33 70.5 29.33C71.01 29.33 71.42 28.92 71.42 28.42ZM57.67 33.92C57.67 33.41 57.26 33 56.75 33C56.24 33 55.83 33.41 55.83 33.92C55.83 34.42 56.24 34.83 56.75 34.83C57.26 34.83 57.67 34.42 57.67 33.92ZM43 52.25C43 51.74 42.59 51.33 42.08 51.33C41.58 51.33 41.17 51.74 41.17 52.25C41.17 52.76 41.58 53.17 42.08 53.17C42.59 53.17 43 52.76 43 52.25ZM43 33.92C43 33.41 42.59 33 42.08 33C41.58 33 41.17 33.41 41.17 33.92C41.17 34.42 41.58 34.83 42.08 34.83C42.59 34.83 43 34.42 43 33.92Z" id="bcDk87l0A"></path><path d="M45.75 15.58C45.75 15.34 45.85 15.11 46.02 14.94C47.12 13.83 55.93 5.03 57.03 3.93C56.85 3.57 56.75 3.17 56.75 2.75C56.75 1.23 57.98 0 59.5 0C60.69 0 61.7 0.77 62.08 1.83C62.46 1.83 65.53 1.83 65.92 1.83C66.42 1.83 66.83 2.24 66.83 2.75C66.83 2.91 66.83 3.7 66.83 5.12C68.88 7.16 70.01 8.3 70.24 8.53C70.6 8.35 70.99 8.25 71.42 8.25C72.93 8.25 74.17 9.48 74.17 11C74.17 12.52 72.93 13.75 71.42 13.75C69.9 13.75 68.67 12.52 68.67 11C68.67 10.58 68.77 10.18 68.94 9.82C68.58 9.45 65.64 6.52 65.27 6.15C65.1 5.98 65 5.74 65 5.5C65 5.38 65 4.77 65 3.67C63.25 3.67 62.28 3.67 62.08 3.67C61.7 4.73 60.69 5.5 59.5 5.5C59.08 5.5 58.68 5.4 58.32 5.22C57.61 5.94 54.03 9.52 47.58 15.96C47.58 17.49 47.58 18.33 47.58 18.5C48.65 18.88 49.42 19.89 49.42 21.08C49.42 22.6 48.18 23.83 46.67 23.83C45.15 23.83 43.92 22.6 43.92 21.08C43.92 19.89 44.69 18.88 45.75 18.5C45.75 17.92 45.75 15.87 45.75 15.58ZM72.33 11C72.33 10.49 71.92 10.08 71.42 10.08C70.91 10.08 70.5 10.49 70.5 11C70.5 11.51 70.91 11.92 71.42 11.92C71.92 11.92 72.33 11.51 72.33 11ZM60.42 2.75C60.42 2.24 60.01 1.83 59.5 1.83C58.99 1.83 58.58 2.24 58.58 2.75C58.58 3.26 58.99 3.67 59.5 3.67C60.01 3.67 60.42 3.26 60.42 2.75ZM47.58 21.08C47.58 20.58 47.17 20.17 46.67 20.17C46.16 20.17 45.75 20.58 45.75 21.08C45.75 21.59 46.16 22 46.67 22C47.17 22 47.58 21.59 47.58 21.08Z" id="a17W0UBfiq"></path><path d="M51.08 27.5C51.8 27.5 55.4 27.5 61.87 27.5C65.01 24.36 66.75 22.62 67.1 22.27C67.27 22.1 67.51 22 67.75 22C68.4 22 71.63 22 77.45 22L79.67 19.79L79.67 12.3C75.42 8.05 73.07 5.7 72.59 5.22C72.24 5.4 71.84 5.5 71.42 5.5C69.9 5.5 68.67 4.27 68.67 2.75C68.67 1.23 69.9 0 71.42 0C72.93 0 74.17 1.23 74.17 2.75C74.17 3.17 74.06 3.57 73.89 3.93C74.62 4.66 80.5 10.53 81.23 11.27C81.4 11.44 81.5 11.67 81.5 11.92C81.5 12.74 81.5 19.34 81.5 20.17C81.5 20.41 81.4 20.64 81.23 20.81C80.96 21.09 78.76 23.29 78.48 23.56C78.31 23.74 78.08 23.83 77.83 23.83C77.19 23.83 73.95 23.83 68.13 23.83C64.99 26.97 63.25 28.72 62.9 29.06C62.73 29.24 62.49 29.33 62.25 29.33C61.13 29.33 52.2 29.33 51.08 29.33C50.7 30.4 49.69 31.17 48.5 31.17C46.98 31.17 45.75 29.93 45.75 28.42C45.75 26.9 46.98 25.67 48.5 25.67C49.69 25.67 50.7 26.44 51.08 27.5ZM70.5 2.75C70.5 3.26 70.91 3.67 71.42 3.67C71.92 3.67 72.33 3.26 72.33 2.75C72.33 2.24 71.92 1.83 71.42 1.83C70.91 1.83 70.5 2.24 70.5 2.75ZM49.42 28.42C49.42 27.91 49.01 27.5 48.5 27.5C47.99 27.5 47.58 27.91 47.58 28.42C47.58 28.92 47.99 29.33 48.5 29.33C49.01 29.33 49.42 28.92 49.42 28.42Z" id="h2krjux671"></path><path d="M30.43 22.28C30.65 22.05 31.79 20.91 33.83 18.87C33.83 15.7 33.83 13.93 33.83 13.58C32.77 13.2 32 12.19 32 11C32 9.48 33.23 8.25 34.75 8.25C36.27 8.25 37.5 9.48 37.5 11C37.5 12.19 36.73 13.2 35.67 13.58C35.67 14.15 35.67 18.68 35.67 19.25C35.67 19.49 35.57 19.73 35.4 19.9C35.03 20.27 32.09 23.2 31.72 23.57C31.9 23.93 32 24.33 32 24.75C32 25.94 31.23 26.95 30.17 27.33C30.17 27.38 30.17 27.61 30.17 28.04C34.41 32.28 36.76 34.63 37.23 35.1C37.4 35.27 37.5 35.51 37.5 35.75C37.5 35.86 37.5 36.73 37.5 36.83C38.56 37.21 39.33 38.22 39.33 39.42C39.33 40.61 38.56 41.62 37.5 42C37.5 42.21 37.5 43.95 37.5 44.17C38.56 44.55 39.33 45.56 39.33 46.75C39.33 48.27 38.1 49.5 36.58 49.5C35.07 49.5 33.83 48.27 33.83 46.75C33.83 45.56 34.6 44.55 35.67 44.17C35.67 43.95 35.67 42.21 35.67 42C34.6 41.62 33.83 40.61 33.83 39.42C33.83 38.22 34.6 37.21 35.67 36.83C35.67 36.79 35.67 36.55 35.67 36.13C31.43 31.89 29.07 29.54 28.6 29.06C28.43 28.89 28.33 28.66 28.33 28.42C28.33 28.31 28.33 27.44 28.33 27.33C27.27 26.95 26.5 25.94 26.5 24.75C26.5 23.23 27.73 22 29.25 22C29.67 22 30.07 22.1 30.43 22.28ZM35.67 11C35.67 10.49 35.26 10.08 34.75 10.08C34.24 10.08 33.83 10.49 33.83 11C33.83 11.51 34.24 11.92 34.75 11.92C35.26 11.92 35.67 11.51 35.67 11ZM37.5 46.75C37.5 46.24 37.09 45.83 36.58 45.83C36.08 45.83 35.67 46.24 35.67 46.75C35.67 47.26 36.08 47.67 36.58 47.67C37.09 47.67 37.5 47.26 37.5 46.75ZM37.5 39.42C37.5 38.91 37.09 38.5 36.58 38.5C36.08 38.5 35.67 38.91 35.67 39.42C35.67 39.92 36.08 40.33 36.58 40.33C37.09 40.33 37.5 39.92 37.5 39.42ZM30.17 24.75C30.17 24.24 29.76 23.83 29.25 23.83C28.74 23.83 28.33 24.24 28.33 24.75C28.33 25.26 28.74 25.67 29.25 25.67C29.76 25.67 30.17 25.26 30.17 24.75Z" id="a3hvZlM6T"></path><path d="M98.36 18.75C97.97 18.35 97.26 17.94 96.23 17.52C94.34 16.8 92.99 15.97 92.16 15.01C91.33 14.05 90.92 12.91 90.92 11.61C90.92 10.02 91.48 8.75 92.6 7.8C93.73 6.83 95.16 6.35 96.89 6.35C98.04 6.35 99.07 6.6 99.97 7.09C100.87 7.57 101.57 8.25 102.05 9.14C102.54 10.03 102.79 11.03 102.79 12.16C102.41 12.16 99.38 12.16 99 12.16C99 11.28 98.81 10.62 98.43 10.16C98.06 9.69 97.53 9.46 96.82 9.46C96.16 9.46 95.64 9.66 95.27 10.06C94.9 10.44 94.72 10.97 94.72 11.63C94.72 12.15 94.92 12.62 95.34 13.04C95.75 13.45 96.48 13.88 97.53 14.33C99.36 14.99 100.69 15.81 101.52 16.77C102.36 17.73 102.77 18.96 102.77 20.45C102.77 22.09 102.25 23.36 101.21 24.28C100.17 25.21 98.75 25.67 96.96 25.67C95.75 25.67 94.64 25.42 93.64 24.92C92.65 24.42 91.86 23.7 91.29 22.77C90.74 21.84 90.46 20.75 90.46 19.48C90.84 19.48 93.88 19.48 94.26 19.48C94.26 20.57 94.48 21.35 94.9 21.84C95.32 22.34 96.01 22.58 96.96 22.58C98.29 22.58 98.95 21.88 98.95 20.48C98.95 19.71 98.75 19.13 98.36 18.75ZM108.65 12.73C109.47 11.7 110.55 11.18 111.89 11.18C113.28 11.18 114.27 11.81 114.84 13.06C115.65 11.81 116.79 11.18 118.27 11.18C120.71 11.18 121.96 12.87 122.02 16.25C122.02 16.86 122.02 19.92 122.02 25.41L118.37 25.41C118.37 20.05 118.37 17.08 118.37 16.49C118.37 15.68 118.26 15.1 118.03 14.76C117.81 14.41 117.43 14.24 116.9 14.24C116.22 14.24 115.71 14.66 115.37 15.49C115.38 15.52 115.38 15.67 115.4 15.93L115.4 25.41L111.75 25.41C111.75 20.07 111.75 17.11 111.75 16.51C111.75 15.71 111.64 15.13 111.42 14.78C111.21 14.42 110.83 14.24 110.27 14.24C109.65 14.24 109.15 14.58 108.78 15.26C108.78 15.94 108.78 19.32 108.78 25.41L105.12 25.41L105.12 11.44L108.54 11.44C108.61 12.21 108.64 12.64 108.65 12.73ZM131.06 24.32C130.41 25.22 129.52 25.67 128.4 25.67C127.23 25.67 126.26 25.28 125.48 24.5C124.72 23.73 124.33 22.73 124.33 21.5C124.33 20.03 124.8 18.9 125.73 18.1C126.67 17.3 128.01 16.89 129.77 16.87C129.84 16.87 130.21 16.87 130.88 16.87C130.88 16.2 130.88 15.83 130.88 15.75C130.88 15.12 130.77 14.68 130.56 14.42C130.34 14.16 130.03 14.03 129.62 14.03C128.7 14.03 128.25 14.57 128.25 15.63C127.88 15.63 124.96 15.63 124.59 15.63C124.59 14.34 125.07 13.28 126.04 12.45C127.01 11.6 128.24 11.18 129.72 11.18C131.25 11.18 132.43 11.58 133.27 12.38C134.11 13.17 134.53 14.31 134.53 15.79C134.53 16.45 134.53 21.7 134.53 22.36C134.55 23.57 134.72 24.51 135.05 25.19C135.05 25.2 135.05 25.28 135.05 25.41L131.37 25.41C131.23 25.02 131.13 24.66 131.06 24.32ZM130.25 22.55C130.53 22.39 130.74 22.2 130.88 21.97C130.88 21.78 130.88 20.81 130.88 19.07C130.35 19.07 130.06 19.07 130 19.07C129.38 19.07 128.89 19.27 128.53 19.66C128.18 20.06 128 20.59 128 21.25C128 22.28 128.41 22.8 129.22 22.8C129.62 22.8 129.96 22.72 130.25 22.55ZM142.86 14.86C141.86 14.86 141.19 15.3 140.84 16.18C140.84 16.79 140.84 19.87 140.84 25.41L137.17 25.41L137.17 11.44L140.62 11.44C140.68 12.34 140.71 12.85 140.72 12.95C141.3 11.77 142.09 11.18 143.11 11.18C143.52 11.18 143.86 11.24 144.11 11.35C144.11 11.59 144.1 12.79 144.08 14.96C143.35 14.9 142.94 14.87 142.86 14.86ZM150.85 11.44L152.73 11.44L152.73 14.19L150.85 14.19C150.85 18.35 150.85 20.66 150.85 21.12C150.85 21.67 150.93 22.05 151.07 22.26C151.23 22.46 151.52 22.57 151.95 22.57C152.3 22.57 152.59 22.54 152.82 22.48C152.81 22.76 152.79 25.03 152.79 25.32C152.17 25.55 151.5 25.67 150.78 25.67C148.42 25.67 147.23 24.31 147.2 21.61C147.2 21.12 147.2 18.64 147.2 14.19L145.59 14.19L145.59 11.44L147.2 11.44L147.2 8L150.85 8L150.85 11.44ZM161.02 6.61C164 6.61 165.66 6.61 165.99 6.61C168.18 6.61 169.93 7.31 171.23 8.7C172.54 10.1 173.2 12.01 173.23 14.43C173.23 14.74 173.23 17.18 173.23 17.48C173.23 19.95 172.58 21.89 171.27 23.3C169.97 24.71 168.17 25.41 165.88 25.41C165.56 25.41 163.94 25.41 161.02 25.41L161.02 6.61ZM164.81 22.26C165.49 22.26 165.87 22.26 165.95 22.26C167.21 22.26 168.1 21.93 168.62 21.26C169.14 20.59 169.41 19.44 169.43 17.8C169.43 17.48 169.43 14.86 169.43 14.54C169.43 12.78 169.19 11.56 168.7 10.87C168.21 10.17 167.37 9.81 166.19 9.77C166.1 9.77 165.64 9.77 164.81 9.77L164.81 22.26ZM177.04 23.99C175.99 22.87 175.46 21.27 175.46 19.18C175.46 19.07 175.46 18.19 175.46 18.07C175.46 15.87 175.95 14.17 176.91 12.97C177.87 11.78 179.25 11.18 181.05 11.18C182.81 11.18 184.13 11.74 185.02 12.87C185.9 13.99 186.36 15.65 186.37 17.85C186.37 17.97 186.37 18.57 186.37 19.65C182.01 19.65 179.59 19.65 179.1 19.65C179.16 20.68 179.38 21.44 179.79 21.92C180.19 22.4 180.82 22.63 181.66 22.63C182.88 22.63 183.9 22.21 184.72 21.38C184.86 21.6 186.01 23.37 186.15 23.59C185.71 24.21 185.06 24.71 184.2 25.1C183.35 25.48 182.43 25.67 181.43 25.67C179.55 25.67 178.09 25.11 177.04 23.99ZM182.78 17.09C182.78 16.89 182.78 16.78 182.78 16.76C182.77 15.92 182.63 15.29 182.37 14.86C182.11 14.43 181.67 14.21 181.03 14.21C180.39 14.21 179.93 14.44 179.63 14.9C179.35 15.35 179.18 16.09 179.13 17.09C179.62 17.09 180.84 17.09 182.78 17.09ZM194.61 11.44L198.42 11.44L194.58 25.41L191.1 25.41L187.25 11.44L191.07 11.44L192.84 20.24L194.61 11.44ZM200.3 25.41L200.3 11.44L203.97 11.44L203.97 25.41L200.3 25.41ZM200.68 6.43C201.04 6.07 201.52 5.89 202.13 5.89C202.73 5.89 203.21 6.07 203.57 6.43C203.93 6.79 204.11 7.25 204.11 7.82C204.11 8.38 203.93 8.85 203.57 9.22C203.22 9.59 202.74 9.77 202.13 9.77C201.51 9.77 201.03 9.59 200.67 9.22C200.31 8.85 200.14 8.38 200.14 7.82C200.14 7.25 200.32 6.79 200.68 6.43ZM213.46 20.57C213.8 20.57 216.55 20.57 216.9 20.57C216.88 22.09 216.41 23.32 215.49 24.26C214.57 25.2 213.38 25.67 211.92 25.67C210.13 25.67 208.75 25.11 207.81 23.99C206.86 22.87 206.38 21.22 206.36 19.04C206.36 18.93 206.36 18.04 206.36 17.93C206.36 15.74 206.82 14.06 207.75 12.91C208.69 11.76 210.07 11.18 211.9 11.18C213.44 11.18 214.65 11.66 215.54 12.61C216.43 13.56 216.88 14.91 216.9 16.65C216.55 16.65 213.8 16.65 213.46 16.65C213.45 15.87 213.32 15.27 213.07 14.85C212.82 14.42 212.41 14.21 211.83 14.21C211.2 14.21 210.74 14.44 210.47 14.9C210.19 15.35 210.04 16.22 210.03 17.52C210.03 17.66 210.03 18.8 210.03 18.94C210.03 20.08 210.08 20.87 210.19 21.33C210.31 21.78 210.49 22.11 210.75 22.32C211.01 22.53 211.37 22.63 211.85 22.63C212.91 22.63 213.44 21.94 213.46 20.57ZM220.21 23.99C219.16 22.87 218.64 21.27 218.64 19.18C218.64 19.07 218.64 18.19 218.64 18.07C218.64 15.87 219.12 14.17 220.08 12.97C221.05 11.78 222.43 11.18 224.23 11.18C225.99 11.18 227.31 11.74 228.19 12.87C229.08 13.99 229.53 15.65 229.55 17.85C229.55 17.97 229.55 18.57 229.55 19.65C225.19 19.65 222.76 19.65 222.28 19.65C222.33 20.68 222.56 21.44 222.96 21.92C223.37 22.4 223.99 22.63 224.84 22.63C226.06 22.63 227.08 22.21 227.9 21.38C228.04 21.6 229.19 23.37 229.33 23.59C228.88 24.21 228.23 24.71 227.38 25.1C226.53 25.48 225.6 25.67 224.6 25.67C222.73 25.67 221.26 25.11 220.21 23.99ZM225.96 17.09C225.96 16.89 225.96 16.78 225.96 16.76C225.94 15.92 225.8 15.29 225.55 14.86C225.29 14.43 224.84 14.21 224.2 14.21C223.57 14.21 223.1 14.44 222.81 14.9C222.52 15.35 222.36 16.09 222.31 17.09C222.79 17.09 224.01 17.09 225.96 17.09Z" id="d2ceLtEtCS"></path><path d="M101.86 35.69L103.47 35.69C101.87 40.32 100.98 42.9 100.8 43.41C100.39 44.54 99.7 45.1 98.72 45.1C98.5 45.1 98.26 45.06 97.99 44.99C97.99 44.91 97.99 44.52 97.99 43.83C98.17 43.84 98.26 43.84 98.28 43.84C98.66 43.84 98.94 43.77 99.13 43.63C99.33 43.5 99.48 43.27 99.59 42.94C99.61 42.9 99.68 42.71 99.81 42.36L97.46 35.69L99.08 35.69L100.5 40.24L101.86 35.69ZM110.3 35.69L112.19 35.69L112.19 42.39L110.68 42.39L110.68 37.96L108.83 42.39L107.81 42.39L105.96 37.93L105.96 42.39L104.45 42.39L104.45 35.69L106.35 35.69L108.32 40.54L110.3 35.69ZM118.06 42.39L118.06 39.69L115.45 39.69L115.45 42.39L113.94 42.39L113.94 35.69L115.45 35.69L115.45 38.48L118.06 38.48L118.06 35.69L119.56 35.69L119.56 42.39L118.06 42.39ZM124.27 37.82C124.81 37.82 125.29 37.92 125.7 38.11C126.11 38.3 126.42 38.56 126.63 38.9C126.85 39.25 126.96 39.65 126.96 40.1C126.96 40.79 126.71 41.34 126.22 41.76C125.74 42.18 125.09 42.39 124.28 42.39C124.08 42.39 123.08 42.39 121.28 42.39L121.28 35.69L122.79 35.69L122.79 37.82C123.68 37.82 124.17 37.82 124.27 37.82ZM128.07 42.39L128.07 35.69L129.58 35.69L129.58 42.39L128.07 42.39ZM122.79 41.19C123.67 41.19 124.16 41.19 124.26 41.19C124.63 41.19 124.92 41.1 125.13 40.92C125.34 40.73 125.45 40.47 125.45 40.13C125.45 39.79 125.34 39.53 125.13 39.33C124.93 39.13 124.65 39.03 124.29 39.03C124.19 39.03 123.69 39.03 122.79 39.03L122.79 41.19ZM132.01 41.62C131.42 41.02 131.13 40.21 131.13 39.21C131.13 39.2 131.13 39.05 131.13 39.03C131.13 38.36 131.25 37.76 131.51 37.24C131.77 36.71 132.13 36.3 132.6 36C133.07 35.71 133.59 35.56 134.16 35.56C135.08 35.56 135.78 35.86 136.28 36.44C136.78 37.02 137.03 37.84 137.03 38.91C137.03 38.95 137.03 39.15 137.03 39.52C134.4 39.52 132.94 39.52 132.64 39.52C132.69 40.07 132.87 40.51 133.2 40.83C133.52 41.15 133.93 41.32 134.42 41.32C135.11 41.32 135.67 41.04 136.11 40.48C136.19 40.56 136.84 41.18 136.92 41.25C136.65 41.65 136.29 41.97 135.84 42.19C135.4 42.41 134.89 42.52 134.34 42.52C133.38 42.52 132.61 42.22 132.01 41.62ZM133.15 37.21C132.9 37.5 132.74 37.9 132.67 38.41C132.86 38.41 133.82 38.41 135.54 38.41C135.54 38.35 135.54 38.31 135.54 38.3C135.51 37.8 135.37 37.42 135.14 37.16C134.9 36.9 134.57 36.77 134.16 36.77C133.74 36.77 133.41 36.92 133.15 37.21ZM144.46 36.88L144.46 42.39L142.96 42.39L142.96 36.88L140.81 36.88L140.81 35.69L146.64 35.69L146.64 36.88L144.46 36.88ZM147.88 41.62C147.29 41.02 146.99 40.21 146.99 39.21C146.99 39.2 146.99 39.05 146.99 39.03C146.99 38.36 147.12 37.76 147.38 37.24C147.64 36.71 148 36.3 148.47 36C148.93 35.71 149.45 35.56 150.03 35.56C150.94 35.56 151.65 35.86 152.14 36.44C152.64 37.02 152.89 37.84 152.89 38.91C152.89 38.95 152.89 39.15 152.89 39.52C150.26 39.52 148.8 39.52 148.51 39.52C148.56 40.07 148.74 40.51 149.06 40.83C149.39 41.15 149.8 41.32 150.29 41.32C150.98 41.32 151.54 41.04 151.97 40.48C152.06 40.56 152.7 41.18 152.79 41.25C152.52 41.65 152.16 41.97 151.71 42.19C151.26 42.41 150.76 42.52 150.2 42.52C149.25 42.52 148.47 42.22 147.88 41.62ZM149.02 37.21C148.77 37.5 148.6 37.9 148.53 38.41C148.73 38.41 149.68 38.41 151.4 38.41C151.4 38.35 151.4 38.31 151.4 38.3C151.37 37.8 151.24 37.42 151 37.16C150.77 36.9 150.44 36.77 150.02 36.77C149.61 36.77 149.27 36.92 149.02 37.21ZM157.75 35.69L159.42 35.69L157.37 38.99L159.49 42.39L157.83 42.39L156.49 40.1L155.16 42.39L153.49 42.39L155.61 38.99L153.56 35.69L155.22 35.69L156.47 37.89L157.75 35.69ZM164.62 42.39L164.62 39.69L162.01 39.69L162.01 42.39L160.51 42.39L160.51 35.69L162.01 35.69L162.01 38.48L164.62 38.48L164.62 35.69L166.13 35.69L166.13 42.39L164.62 42.39ZM167.85 37.21C168.11 36.68 168.47 36.27 168.94 35.99C169.41 35.71 169.95 35.56 170.57 35.56C171.47 35.56 172.2 35.86 172.77 36.44C173.33 37.02 173.64 37.79 173.68 38.76C173.68 38.79 173.69 39.07 173.69 39.11C173.69 39.77 173.56 40.36 173.31 40.88C173.05 41.4 172.69 41.8 172.21 42.09C171.74 42.38 171.2 42.52 170.58 42.52C169.63 42.52 168.87 42.2 168.3 41.58C167.74 40.94 167.46 40.1 167.46 39.05C167.46 39.05 167.46 39.02 167.46 38.98C167.54 38.15 167.67 37.56 167.85 37.21ZM169.39 40.73C169.67 41.12 170.07 41.32 170.58 41.32C171.09 41.32 171.48 41.12 171.76 40.72C172.05 40.32 172.19 39.74 172.19 38.98C172.19 38.3 172.04 37.76 171.75 37.37C171.46 36.97 171.07 36.77 170.57 36.77C170.07 36.77 169.68 36.97 169.39 37.36C169.11 37.75 168.96 38.33 168.96 39.11C168.96 39.8 169.1 40.34 169.39 40.73ZM180.56 42.39L179.06 42.39L179.06 36.9L177.16 36.9C177.09 38.3 177.04 39.08 177.04 39.24C176.96 40.36 176.74 41.17 176.39 41.66C176.03 42.15 175.5 42.39 174.77 42.39C174.74 42.39 174.58 42.39 174.3 42.39L174.3 41.14C174.48 41.12 174.59 41.11 174.61 41.11C174.94 41.07 175.18 40.87 175.33 40.51C175.48 40.15 175.58 39.5 175.62 38.55C175.63 38.36 175.67 37.41 175.74 35.69L180.56 35.69L180.56 42.39ZM182.27 37.21C182.53 36.68 182.9 36.27 183.37 35.99C183.84 35.71 184.38 35.56 184.99 35.56C185.9 35.56 186.63 35.86 187.19 36.44C187.76 37.02 188.07 37.79 188.11 38.76C188.11 38.79 188.12 39.07 188.12 39.11C188.12 39.77 187.99 40.36 187.73 40.88C187.48 41.4 187.12 41.8 186.64 42.09C186.17 42.38 185.63 42.52 185.01 42.52C184.06 42.52 183.3 42.2 182.73 41.58C182.17 40.94 181.88 40.1 181.88 39.05C181.88 39.05 181.88 39.02 181.88 38.98C181.97 38.15 182.1 37.56 182.27 37.21ZM183.82 40.73C184.1 41.12 184.5 41.32 185.01 41.32C185.51 41.32 185.91 41.12 186.19 40.72C186.48 40.32 186.62 39.74 186.62 38.98C186.62 38.3 186.47 37.76 186.18 37.37C185.89 36.97 185.49 36.77 184.99 36.77C184.5 36.77 184.11 36.97 183.82 37.36C183.53 37.75 183.39 38.33 183.39 39.11C183.39 39.8 183.53 40.34 183.82 40.73ZM190.94 36.9L190.94 42.39L189.44 42.39L189.44 35.69L193.86 35.69L193.86 36.9L190.94 36.9ZM200.39 35.69L200.39 42.39L198.89 42.39L198.89 37.92L196.27 42.39L194.77 42.39L194.77 35.69L196.27 35.69L196.27 40.16L198.89 35.69L200.39 35.69ZM207.68 35.69L207.68 42.39L206.18 42.39L206.18 37.92L203.56 42.39L202.06 42.39L202.06 35.69L203.56 35.69L203.56 40.16L206.18 35.69L207.68 35.69Z" id="bpDMuHBhk"></path></defs><g><g><g><use xlink:href="#aSILnkuy7" opacity="1" fill="#00b2ff" fill-opacity="1"></use><g><use xlink:href="#aSILnkuy7" opacity="1" fill-opacity="0" stroke="#000000" stroke-width="1" stroke-opacity="0"></use></g></g><g><use xlink:href="#c2k34ICpuI" opacity="1" fill="#00b2ff" fill-opacity="1"></use><g><use xlink:href="#c2k34ICpuI" opacity="1" fill-opacity="0" stroke="#000000" stroke-width="1" stroke-opacity="0"></use></g></g><g><use xlink:href="#b4VJRha87M" opacity="1" fill="#00b2ff" fill-opacity="1"></use><g><use xlink:href="#b4VJRha87M" opacity="1" fill-opacity="0" stroke="#000000" stroke-width="1" stroke-opacity="0"></use></g></g><g><use xlink:href="#j3Xu4qMim4" opacity="1" fill="#00b2ff" fill-opacity="1"></use><g><use xlink:href="#j3Xu4qMim4" opacity="1" fill-opacity="0" stroke="#000000" stroke-width="1" stroke-opacity="0"></use></g></g><g><use xlink:href="#bcDk87l0A" opacity="1" fill="#00b2ff" fill-opacity="1"></use><g><use xlink:href="#bcDk87l0A" opacity="1" fill-opacity="0" stroke="#000000" stroke-width="1" stroke-opacity="0"></use></g></g><g><use xlink:href="#a17W0UBfiq" opacity="1" fill="#00b2ff" fill-opacity="1"></use><g><use xlink:href="#a17W0UBfiq" opacity="1" fill-opacity="0" stroke="#000000" stroke-width="1" stroke-opacity="0"></use></g></g><g><use xlink:href="#h2krjux671" opacity="1" fill="#00b2ff" fill-opacity="1"></use><g><use xlink:href="#h2krjux671" opacity="1" fill-opacity="0" stroke="#000000" stroke-width="1" stroke-opacity="0"></use></g></g><g><use xlink:href="#a3hvZlM6T" opacity="1" fill="#00b2ff" fill-opacity="1"></use><g><use xlink:href="#a3hvZlM6T" opacity="1" fill-opacity="0" stroke="#000000" stroke-width="1" stroke-opacity="0"></use></g></g><g><use xlink:href="#d2ceLtEtCS" opacity="1" fill="#ffffff" fill-opacity="1"></use><g><use xlink:href="#d2ceLtEtCS" opacity="1" fill-opacity="0" stroke="#000000" stroke-width="1" stroke-opacity="0"></use></g></g><g><use xlink:href="#bpDMuHBhk" opacity="1" fill="#788891" fill-opacity="1"></use><g><use xlink:href="#bpDMuHBhk" opacity="1" fill-opacity="0" stroke="#000000" stroke-width="1" stroke-opacity="0"></use></g></g></g></g></svg>
