<svg version="1.1" xmlns="http://www.w3.org/2000/svg" xmlns:xlink="http://www.w3.org/1999/xlink" preserveAspectRatio="xMidYMid meet" viewBox="0 0 640 640" width="640" height="640"><defs><path d="M114 16.5C114.95 16.5 122.55 16.5 123.5 16.5C123.88 15.44 124.89 14.67 126.08 14.67C127.6 14.67 128.83 15.9 128.83 17.42C128.83 18.93 127.6 20.17 126.08 20.17C124.89 20.17 123.88 19.4 123.5 18.33C122.55 18.33 114.95 18.33 114 18.33C113.62 19.4 112.61 20.17 111.42 20.17C109.9 20.17 108.67 18.93 108.67 17.42C108.67 15.9 109.9 14.67 111.42 14.67C112.61 14.67 113.62 15.44 114 16.5ZM127 17.42C127 16.91 126.59 16.5 126.08 16.5C125.58 16.5 125.17 16.91 125.17 17.42C125.17 17.92 125.58 18.33 126.08 18.33C126.59 18.33 127 17.92 127 17.42ZM112.33 17.42C112.33 16.91 111.92 16.5 111.42 16.5C110.91 16.5 110.5 16.91 110.5 17.42C110.5 17.92 110.91 18.33 111.42 18.33C111.92 18.33 112.33 17.92 112.33 17.42Z" id="aeiB0QRpL"></path><path d="M104.08 14.67C104.08 14.42 104.18 14.19 104.35 14.02C104.72 13.65 107.65 10.72 108.02 10.35C108.19 10.18 108.42 10.08 108.67 10.08C108.96 10.08 111.29 10.08 111.59 10.08C111.96 9.02 112.97 8.25 114.17 8.25C115.68 8.25 116.92 9.48 116.92 11C116.92 12.52 115.68 13.75 114.17 13.75C112.97 13.75 111.96 12.98 111.59 11.92C111.42 11.92 110.57 11.92 109.05 11.92L105.92 15.05C105.92 18.22 105.92 19.98 105.92 20.34C106.98 20.71 107.75 21.72 107.75 22.92C107.75 24.43 106.52 25.67 105 25.67C103.48 25.67 102.25 24.43 102.25 22.92C102.25 21.72 103.02 20.71 104.08 20.34C104.08 19.2 104.08 15.23 104.08 14.67ZM115.08 11C115.08 10.49 114.67 10.08 114.17 10.08C113.66 10.08 113.25 10.49 113.25 11C113.25 11.51 113.66 11.92 114.17 11.92C114.67 11.92 115.08 11.51 115.08 11ZM105.92 22.92C105.92 22.41 105.51 22 105 22C104.49 22 104.08 22.41 104.08 22.92C104.08 23.42 104.49 23.83 105 23.83C105.51 23.83 105.92 23.42 105.92 22.92Z" id="n3UGVziyYC"></path><path d="M88.76 24.11C88.87 24 89.39 23.48 90.33 22.54C90.33 17.26 90.33 14.34 90.33 13.75C90.33 13.51 90.43 13.27 90.6 13.1C91.52 12.18 98.86 4.85 99.78 3.93C99.6 3.57 99.5 3.17 99.5 2.75C99.5 1.23 100.73 0 102.25 0C103.77 0 105 1.23 105 2.75C105 4.27 103.77 5.5 102.25 5.5C101.83 5.5 101.43 5.4 101.07 5.22C100.48 5.82 97.51 8.79 92.17 14.13C92.17 19.4 92.17 22.33 92.17 22.92C92.17 23.16 92.07 23.39 91.9 23.56C91.71 23.75 90.24 25.22 90.06 25.41C90.23 25.76 90.33 26.16 90.33 26.58C90.33 28.1 89.1 29.33 87.58 29.33C86.07 29.33 84.83 28.1 84.83 26.58C84.83 25.07 86.07 23.83 87.58 23.83C88.01 23.83 88.4 23.94 88.76 24.11ZM103.17 2.75C103.17 2.24 102.76 1.83 102.25 1.83C101.74 1.83 101.33 2.24 101.33 2.75C101.33 3.26 101.74 3.67 102.25 3.67C102.76 3.67 103.17 3.26 103.17 2.75ZM88.5 26.58C88.5 26.08 88.09 25.67 87.58 25.67C87.08 25.67 86.67 26.08 86.67 26.58C86.67 27.09 87.08 27.5 87.58 27.5C88.09 27.5 88.5 27.09 88.5 26.58Z" id="a4ngi2b2dY"></path><path d="M79.33 9.17C79.33 8.92 79.43 8.69 79.6 8.52C80.24 7.88 85.38 2.74 86.02 2.1C86.19 1.93 86.42 1.83 86.67 1.83C87.14 1.83 90.94 1.83 91.42 1.83C91.8 0.77 92.81 0 94 0C95.52 0 96.75 1.23 96.75 2.75C96.75 4.27 95.52 5.5 94 5.5C92.81 5.5 91.8 4.73 91.42 3.67C91.13 3.67 89.67 3.67 87.05 3.67L81.17 9.55C81.17 11.62 81.17 12.77 81.17 13C82.23 13.38 83 14.39 83 15.58C83 17.1 81.77 18.33 80.25 18.33C78.73 18.33 77.5 17.1 77.5 15.58C77.5 14.39 78.27 13.38 79.33 13C79.33 12.23 79.33 9.55 79.33 9.17ZM94.92 2.75C94.92 2.24 94.51 1.83 94 1.83C93.49 1.83 93.08 2.24 93.08 2.75C93.08 3.26 93.49 3.67 94 3.67C94.51 3.67 94.92 3.26 94.92 2.75ZM81.17 15.58C81.17 15.08 80.76 14.67 80.25 14.67C79.74 14.67 79.33 15.08 79.33 15.58C79.33 16.09 79.74 16.5 80.25 16.5C80.76 16.5 81.17 16.09 81.17 15.58Z" id="k2miu5ZQQG"></path><path d="M92.17 36.5C91.1 36.12 90.33 35.11 90.33 33.92C90.33 32.4 91.57 31.17 93.08 31.17C94.28 31.17 95.29 31.94 95.66 33C96.61 33 104.22 33 105.17 33C105.55 31.94 106.56 31.17 107.75 31.17C108.94 31.17 109.95 31.94 110.33 33C110.68 33 112.45 33 115.62 33C117.66 30.96 118.8 29.82 119.03 29.59C118.85 29.24 118.75 28.84 118.75 28.42C118.75 26.9 119.98 25.67 121.5 25.67C123.02 25.67 124.25 26.9 124.25 28.42C124.25 29.93 123.02 31.17 121.5 31.17C121.08 31.17 120.68 31.06 120.32 30.89C119.95 31.26 117.02 34.2 116.65 34.56C116.48 34.74 116.24 34.83 116 34.83C115.43 34.83 110.9 34.83 110.33 34.83C109.95 35.9 108.94 36.67 107.75 36.67C106.56 36.67 105.55 35.9 105.17 34.83C104.22 34.83 96.61 34.83 95.66 34.83C95.39 35.61 94.78 36.22 94 36.5C94 37.81 94 48.35 94 49.67C95.06 50.05 95.83 51.06 95.83 52.25C95.83 53.77 94.6 55 93.08 55C91.57 55 90.33 53.77 90.33 52.25C90.33 51.06 91.1 50.05 92.17 49.67C92.17 47.03 92.17 37.81 92.17 36.5ZM122.42 28.42C122.42 27.91 122.01 27.5 121.5 27.5C120.99 27.5 120.58 27.91 120.58 28.42C120.58 28.92 120.99 29.33 121.5 29.33C122.01 29.33 122.42 28.92 122.42 28.42ZM108.67 33.92C108.67 33.41 108.26 33 107.75 33C107.24 33 106.83 33.41 106.83 33.92C106.83 34.42 107.24 34.83 107.75 34.83C108.26 34.83 108.67 34.42 108.67 33.92ZM94 52.25C94 51.74 93.59 51.33 93.08 51.33C92.58 51.33 92.17 51.74 92.17 52.25C92.17 52.76 92.58 53.17 93.08 53.17C93.59 53.17 94 52.76 94 52.25ZM94 33.92C94 33.41 93.59 33 93.08 33C92.58 33 92.17 33.41 92.17 33.92C92.17 34.42 92.58 34.83 93.08 34.83C93.59 34.83 94 34.42 94 33.92Z" id="dnc6Q66Zf"></path><path d="M96.75 15.58C96.75 15.34 96.85 15.11 97.02 14.94C98.12 13.83 106.93 5.03 108.03 3.93C107.85 3.57 107.75 3.17 107.75 2.75C107.75 1.23 108.98 0 110.5 0C111.69 0 112.7 0.77 113.08 1.83C113.46 1.83 116.53 1.83 116.92 1.83C117.42 1.83 117.83 2.24 117.83 2.75C117.83 2.91 117.83 3.7 117.83 5.12C119.88 7.16 121.01 8.3 121.24 8.53C121.6 8.35 121.99 8.25 122.42 8.25C123.93 8.25 125.17 9.48 125.17 11C125.17 12.52 123.93 13.75 122.42 13.75C120.9 13.75 119.67 12.52 119.67 11C119.67 10.58 119.77 10.18 119.94 9.82C119.58 9.45 116.64 6.52 116.27 6.15C116.1 5.98 116 5.74 116 5.5C116 5.38 116 4.77 116 3.67C114.25 3.67 113.28 3.67 113.08 3.67C112.7 4.73 111.69 5.5 110.5 5.5C110.08 5.5 109.68 5.4 109.32 5.22C108.61 5.94 105.03 9.52 98.58 15.96C98.58 17.49 98.58 18.33 98.58 18.5C99.65 18.88 100.42 19.89 100.42 21.08C100.42 22.6 99.18 23.83 97.67 23.83C96.15 23.83 94.92 22.6 94.92 21.08C94.92 19.89 95.69 18.88 96.75 18.5C96.75 17.92 96.75 15.87 96.75 15.58ZM123.33 11C123.33 10.49 122.92 10.08 122.42 10.08C121.91 10.08 121.5 10.49 121.5 11C121.5 11.51 121.91 11.92 122.42 11.92C122.92 11.92 123.33 11.51 123.33 11ZM111.42 2.75C111.42 2.24 111.01 1.83 110.5 1.83C109.99 1.83 109.58 2.24 109.58 2.75C109.58 3.26 109.99 3.67 110.5 3.67C111.01 3.67 111.42 3.26 111.42 2.75ZM98.58 21.08C98.58 20.58 98.17 20.17 97.67 20.17C97.16 20.17 96.75 20.58 96.75 21.08C96.75 21.59 97.16 22 97.67 22C98.17 22 98.58 21.59 98.58 21.08Z" id="c1WY5TbWHO"></path><path d="M102.08 27.5C102.8 27.5 106.4 27.5 112.87 27.5C116.01 24.36 117.75 22.62 118.1 22.27C118.27 22.1 118.51 22 118.75 22C119.4 22 122.63 22 128.45 22L130.67 19.79L130.67 12.3C126.42 8.05 124.07 5.7 123.59 5.22C123.24 5.4 122.84 5.5 122.42 5.5C120.9 5.5 119.67 4.27 119.67 2.75C119.67 1.23 120.9 0 122.42 0C123.93 0 125.17 1.23 125.17 2.75C125.17 3.17 125.06 3.57 124.89 3.93C125.62 4.66 131.5 10.53 132.23 11.27C132.4 11.44 132.5 11.67 132.5 11.92C132.5 12.74 132.5 19.34 132.5 20.17C132.5 20.41 132.4 20.64 132.23 20.81C131.96 21.09 129.76 23.29 129.48 23.56C129.31 23.74 129.08 23.83 128.83 23.83C128.19 23.83 124.95 23.83 119.13 23.83C115.99 26.97 114.25 28.72 113.9 29.06C113.73 29.24 113.49 29.33 113.25 29.33C112.13 29.33 103.2 29.33 102.08 29.33C101.7 30.4 100.69 31.17 99.5 31.17C97.98 31.17 96.75 29.93 96.75 28.42C96.75 26.9 97.98 25.67 99.5 25.67C100.69 25.67 101.7 26.44 102.08 27.5ZM121.5 2.75C121.5 3.26 121.91 3.67 122.42 3.67C122.92 3.67 123.33 3.26 123.33 2.75C123.33 2.24 122.92 1.83 122.42 1.83C121.91 1.83 121.5 2.24 121.5 2.75ZM100.42 28.42C100.42 27.91 100.01 27.5 99.5 27.5C98.99 27.5 98.58 27.91 98.58 28.42C98.58 28.92 98.99 29.33 99.5 29.33C100.01 29.33 100.42 28.92 100.42 28.42Z" id="g1zu7EDpO"></path><path d="M81.43 22.28C81.65 22.05 82.79 20.91 84.83 18.87C84.83 15.7 84.83 13.93 84.83 13.58C83.77 13.2 83 12.19 83 11C83 9.48 84.23 8.25 85.75 8.25C87.27 8.25 88.5 9.48 88.5 11C88.5 12.19 87.73 13.2 86.67 13.58C86.67 14.15 86.67 18.68 86.67 19.25C86.67 19.49 86.57 19.73 86.4 19.9C86.03 20.27 83.09 23.2 82.72 23.57C82.9 23.93 83 24.33 83 24.75C83 25.94 82.23 26.95 81.17 27.33C81.17 27.38 81.17 27.61 81.17 28.04C85.41 32.28 87.76 34.63 88.23 35.1C88.4 35.27 88.5 35.51 88.5 35.75C88.5 35.86 88.5 36.73 88.5 36.83C89.56 37.21 90.33 38.22 90.33 39.42C90.33 40.61 89.56 41.62 88.5 42C88.5 42.21 88.5 43.95 88.5 44.17C89.56 44.55 90.33 45.56 90.33 46.75C90.33 48.27 89.1 49.5 87.58 49.5C86.07 49.5 84.83 48.27 84.83 46.75C84.83 45.56 85.6 44.55 86.67 44.17C86.67 43.95 86.67 42.21 86.67 42C85.6 41.62 84.83 40.61 84.83 39.42C84.83 38.22 85.6 37.21 86.67 36.83C86.67 36.79 86.67 36.55 86.67 36.13C82.43 31.89 80.07 29.54 79.6 29.06C79.43 28.89 79.33 28.66 79.33 28.42C79.33 28.31 79.33 27.44 79.33 27.33C78.27 26.95 77.5 25.94 77.5 24.75C77.5 23.23 78.73 22 80.25 22C80.67 22 81.07 22.1 81.43 22.28ZM86.67 11C86.67 10.49 86.26 10.08 85.75 10.08C85.24 10.08 84.83 10.49 84.83 11C84.83 11.51 85.24 11.92 85.75 11.92C86.26 11.92 86.67 11.51 86.67 11ZM88.5 46.75C88.5 46.24 88.09 45.83 87.58 45.83C87.08 45.83 86.67 46.24 86.67 46.75C86.67 47.26 87.08 47.67 87.58 47.67C88.09 47.67 88.5 47.26 88.5 46.75ZM88.5 39.42C88.5 38.91 88.09 38.5 87.58 38.5C87.08 38.5 86.67 38.91 86.67 39.42C86.67 39.92 87.08 40.33 87.58 40.33C88.09 40.33 88.5 39.92 88.5 39.42ZM81.17 24.75C81.17 24.24 80.76 23.83 80.25 23.83C79.74 23.83 79.33 24.24 79.33 24.75C79.33 25.26 79.74 25.67 80.25 25.67C80.76 25.67 81.17 25.26 81.17 24.75Z" id="g3QyVwr4cW"></path><path d="M153.02 24.78C152.64 24.38 151.93 23.97 150.89 23.55C149.01 22.84 147.65 22 146.83 21.04C146 20.08 145.59 18.94 145.59 17.64C145.59 16.05 146.15 14.78 147.27 13.83C148.39 12.86 149.82 12.38 151.55 12.38C152.71 12.38 153.73 12.63 154.64 13.12C155.54 13.6 156.23 14.28 156.72 15.17C157.21 16.06 157.45 17.06 157.45 18.19C157.07 18.19 154.05 18.19 153.67 18.19C153.67 17.31 153.48 16.65 153.1 16.19C152.73 15.73 152.19 15.49 151.49 15.49C150.82 15.49 150.31 15.69 149.94 16.09C149.57 16.47 149.38 17 149.38 17.66C149.38 18.18 149.59 18.65 150 19.07C150.42 19.48 151.15 19.91 152.2 20.36C154.03 21.02 155.36 21.84 156.19 22.8C157.02 23.76 157.44 24.99 157.44 26.48C157.44 28.12 156.92 29.39 155.88 30.32C154.84 31.24 153.42 31.7 151.63 31.7C150.42 31.7 149.31 31.45 148.31 30.95C147.31 30.45 146.53 29.73 145.96 28.8C145.4 27.87 145.12 26.78 145.12 25.51C145.5 25.51 148.55 25.51 148.93 25.51C148.93 26.6 149.14 27.38 149.56 27.87C149.99 28.37 150.67 28.61 151.63 28.61C152.95 28.61 153.62 27.91 153.62 26.51C153.62 25.74 153.42 25.16 153.02 24.78ZM163.31 18.76C164.13 17.73 165.21 17.21 166.55 17.21C167.95 17.21 168.93 17.84 169.51 19.1C170.31 17.84 171.45 17.21 172.93 17.21C175.38 17.21 176.63 18.9 176.69 22.28C176.69 22.89 176.69 25.95 176.69 31.44L173.04 31.44C173.04 26.09 173.04 23.11 173.04 22.52C173.04 21.71 172.92 21.13 172.7 20.79C172.48 20.44 172.1 20.27 171.56 20.27C170.88 20.27 170.38 20.69 170.04 21.52C170.04 21.55 170.05 21.7 170.07 21.96L170.07 31.44L166.41 31.44C166.41 26.1 166.41 23.14 166.41 22.54C166.41 21.74 166.31 21.17 166.09 20.81C165.87 20.45 165.49 20.27 164.94 20.27C164.31 20.27 163.81 20.61 163.44 21.29C163.44 21.97 163.44 25.35 163.44 31.44L159.79 31.44L159.79 17.47L163.21 17.47C163.27 18.24 163.31 18.67 163.31 18.76ZM185.73 30.35C185.07 31.25 184.19 31.7 183.07 31.7C181.9 31.7 180.93 31.31 180.15 30.53C179.38 29.76 179 28.76 179 27.53C179 26.06 179.47 24.93 180.4 24.13C181.33 23.33 182.68 22.92 184.44 22.9C184.51 22.9 184.88 22.9 185.55 22.9C185.55 22.23 185.55 21.86 185.55 21.78C185.55 21.15 185.44 20.71 185.22 20.45C185.01 20.19 184.7 20.06 184.28 20.06C183.37 20.06 182.91 20.6 182.91 21.66C182.55 21.66 179.62 21.66 179.26 21.66C179.26 20.37 179.74 19.31 180.71 18.48C181.68 17.63 182.9 17.21 184.39 17.21C185.92 17.21 187.1 17.61 187.94 18.41C188.78 19.2 189.2 20.34 189.2 21.82C189.2 22.48 189.2 27.73 189.2 28.39C189.22 29.6 189.39 30.54 189.72 31.22C189.72 31.23 189.72 31.31 189.72 31.44L186.04 31.44C185.9 31.05 185.8 30.69 185.73 30.35ZM184.91 28.58C185.2 28.42 185.41 28.23 185.55 28C185.55 27.81 185.55 26.84 185.55 25.1C185.02 25.1 184.73 25.1 184.67 25.1C184.05 25.1 183.56 25.3 183.2 25.69C182.84 26.09 182.67 26.62 182.67 27.28C182.67 28.31 183.07 28.83 183.88 28.83C184.29 28.83 184.63 28.75 184.91 28.58ZM197.53 20.89C196.53 20.89 195.85 21.33 195.5 22.21C195.5 22.82 195.5 25.9 195.5 31.44L191.84 31.44L191.84 17.47L195.28 17.47C195.34 18.37 195.38 18.88 195.39 18.98C195.96 17.8 196.76 17.21 197.77 17.21C198.19 17.21 198.52 17.27 198.78 17.38C198.78 17.62 198.77 18.82 198.74 20.99C198.01 20.93 197.61 20.9 197.53 20.89ZM205.52 17.47L207.39 17.47L207.39 20.22L205.52 20.22C205.52 24.38 205.52 26.69 205.52 27.15C205.52 27.7 205.59 28.08 205.74 28.29C205.9 28.49 206.19 28.6 206.62 28.6C206.97 28.6 207.26 28.57 207.48 28.51C207.48 28.79 207.46 31.06 207.46 31.35C206.84 31.58 206.17 31.7 205.44 31.7C203.09 31.7 201.89 30.35 201.87 27.64C201.87 27.15 201.87 24.67 201.87 20.22L200.25 20.22L200.25 17.47L201.87 17.47L201.87 14.03L205.52 14.03L205.52 17.47ZM215.68 12.64C218.66 12.64 220.32 12.64 220.65 12.64C222.85 12.64 224.6 13.34 225.9 14.73C227.2 16.13 227.87 18.04 227.9 20.46C227.9 20.77 227.9 23.21 227.9 23.51C227.9 25.98 227.24 27.92 225.93 29.33C224.63 30.74 222.84 31.44 220.55 31.44C220.23 31.44 218.6 31.44 215.68 31.44L215.68 12.64ZM219.48 28.29C220.16 28.29 220.54 28.29 220.61 28.29C221.88 28.29 222.77 27.96 223.29 27.29C223.8 26.62 224.07 25.47 224.1 23.83C224.1 23.51 224.1 20.89 224.1 20.57C224.1 18.81 223.86 17.59 223.36 16.9C222.87 16.2 222.04 15.84 220.86 15.8C220.77 15.8 220.31 15.8 219.48 15.8L219.48 28.29ZM231.71 30.02C230.66 28.9 230.13 27.3 230.13 25.22C230.13 25.1 230.13 24.22 230.13 24.1C230.13 21.9 230.61 20.2 231.58 19C232.54 17.81 233.92 17.21 235.72 17.21C237.48 17.21 238.8 17.77 239.68 18.9C240.57 20.02 241.02 21.68 241.04 23.89C241.04 24 241.04 24.6 241.04 25.68C236.68 25.68 234.26 25.68 233.77 25.68C233.82 26.71 234.05 27.47 234.46 27.95C234.86 28.43 235.48 28.66 236.33 28.66C237.55 28.66 238.57 28.24 239.39 27.41C239.53 27.63 240.68 29.4 240.82 29.62C240.37 30.24 239.72 30.74 238.87 31.13C238.02 31.51 237.09 31.7 236.1 31.7C234.22 31.7 232.76 31.14 231.71 30.02ZM237.45 23.12C237.45 22.92 237.45 22.81 237.45 22.79C237.43 21.95 237.3 21.32 237.04 20.89C236.78 20.46 236.33 20.24 235.69 20.24C235.06 20.24 234.59 20.47 234.3 20.93C234.02 21.38 233.85 22.12 233.8 23.12C234.28 23.12 235.5 23.12 237.45 23.12ZM249.28 17.47L253.09 17.47L249.25 31.44L245.77 31.44L241.92 17.47L245.74 17.47L247.51 26.27L249.28 17.47ZM254.97 31.44L254.97 17.47L258.64 17.47L258.64 31.44L254.97 31.44ZM255.35 12.46C255.71 12.1 256.19 11.92 256.79 11.92C257.39 11.92 257.88 12.1 258.24 12.46C258.6 12.82 258.78 13.29 258.78 13.85C258.78 14.41 258.6 14.88 258.24 15.25C257.88 15.62 257.4 15.8 256.79 15.8C256.18 15.8 255.69 15.62 255.33 15.25C254.98 14.88 254.8 14.41 254.8 13.85C254.8 13.29 254.98 12.82 255.35 12.46ZM268.13 26.6C268.47 26.6 271.22 26.6 271.56 26.6C271.55 28.12 271.08 29.35 270.15 30.29C269.23 31.23 268.05 31.7 266.59 31.7C264.79 31.7 263.42 31.14 262.47 30.02C261.53 28.9 261.04 27.25 261.03 25.07C261.03 24.96 261.03 24.07 261.03 23.96C261.03 21.77 261.49 20.09 262.42 18.94C263.36 17.79 264.74 17.21 266.57 17.21C268.11 17.21 269.32 17.69 270.21 18.64C271.09 19.59 271.55 20.94 271.56 22.68C271.22 22.68 268.47 22.68 268.13 22.68C268.12 21.9 267.99 21.3 267.74 20.88C267.49 20.46 267.08 20.24 266.5 20.24C265.86 20.24 265.41 20.47 265.13 20.93C264.86 21.38 264.71 22.25 264.69 23.55C264.69 23.69 264.69 24.83 264.69 24.97C264.69 26.11 264.75 26.9 264.86 27.36C264.97 27.81 265.16 28.14 265.42 28.35C265.67 28.56 266.04 28.66 266.51 28.66C267.57 28.66 268.11 27.97 268.13 26.6ZM274.88 30.02C273.83 28.9 273.31 27.3 273.31 25.22C273.31 25.1 273.31 24.22 273.31 24.1C273.31 21.9 273.79 20.2 274.75 19C275.72 17.81 277.1 17.21 278.9 17.21C280.65 17.21 281.97 17.77 282.86 18.9C283.75 20.02 284.2 21.68 284.22 23.89C284.22 24 284.22 24.6 284.22 25.68C279.85 25.68 277.43 25.68 276.95 25.68C277 26.71 277.23 27.47 277.63 27.95C278.04 28.43 278.66 28.66 279.5 28.66C280.73 28.66 281.74 28.24 282.56 27.41C282.71 27.63 283.85 29.4 284 29.62C283.55 30.24 282.9 30.74 282.05 31.13C281.19 31.51 280.27 31.7 279.27 31.7C277.39 31.7 275.93 31.14 274.88 30.02ZM280.63 23.12C280.63 22.92 280.63 22.81 280.63 22.79C280.61 21.95 280.47 21.32 280.21 20.89C279.95 20.46 279.51 20.24 278.87 20.24C278.23 20.24 277.77 20.47 277.48 20.93C277.19 21.38 277.02 22.12 276.97 23.12C277.46 23.12 278.68 23.12 280.63 23.12Z" id="b49KL3u7WD"></path><path d="M150.95 35.69L152.55 35.69C150.95 40.32 150.06 42.9 149.89 43.41C149.48 44.54 148.78 45.1 147.8 45.1C147.59 45.1 147.34 45.06 147.08 44.99C147.08 44.91 147.08 44.52 147.08 43.83C147.25 43.84 147.35 43.84 147.36 43.84C147.74 43.84 148.03 43.77 148.22 43.63C148.41 43.5 148.57 43.27 148.68 42.94C148.69 42.9 148.76 42.71 148.89 42.36L146.54 35.69L148.16 35.69L149.58 40.24L150.95 35.69ZM159.39 35.69L161.27 35.69L161.27 42.39L159.77 42.39L159.77 37.96L157.92 42.39L156.9 42.39L155.04 37.93L155.04 42.39L153.54 42.39L153.54 35.69L155.43 35.69L157.4 40.54L159.39 35.69ZM167.14 42.39L167.14 39.69L164.53 39.69L164.53 42.39L163.02 42.39L163.02 35.69L164.53 35.69L164.53 38.48L167.14 38.48L167.14 35.69L168.65 35.69L168.65 42.39L167.14 42.39ZM173.35 37.82C173.9 37.82 174.38 37.92 174.79 38.11C175.2 38.3 175.51 38.56 175.72 38.9C175.93 39.25 176.04 39.65 176.04 40.1C176.04 40.79 175.8 41.34 175.31 41.76C174.82 42.18 174.17 42.39 173.36 42.39C173.16 42.39 172.16 42.39 170.37 42.39L170.37 35.69L171.87 35.69L171.87 37.82C172.76 37.82 173.25 37.82 173.35 37.82ZM177.16 42.39L177.16 35.69L178.66 35.69L178.66 42.39L177.16 42.39ZM171.87 41.19C172.76 41.19 173.25 41.19 173.34 41.19C173.71 41.19 174 41.1 174.21 40.92C174.43 40.73 174.53 40.47 174.53 40.13C174.53 39.79 174.43 39.53 174.22 39.33C174.01 39.13 173.73 39.03 173.37 39.03C173.27 39.03 172.77 39.03 171.87 39.03L171.87 41.19ZM181.1 41.62C180.51 41.02 180.21 40.21 180.21 39.21C180.21 39.2 180.21 39.05 180.21 39.03C180.21 38.36 180.34 37.76 180.59 37.24C180.86 36.71 181.22 36.3 181.69 36C182.15 35.71 182.67 35.56 183.25 35.56C184.16 35.56 184.86 35.86 185.36 36.44C185.86 37.02 186.11 37.84 186.11 38.91C186.11 38.95 186.11 39.15 186.11 39.52C183.48 39.52 182.02 39.52 181.73 39.52C181.77 40.07 181.96 40.51 182.28 40.83C182.61 41.15 183.02 41.32 183.51 41.32C184.2 41.32 184.76 41.04 185.19 40.48C185.27 40.56 185.92 41.18 186.01 41.25C185.74 41.65 185.38 41.97 184.93 42.19C184.48 42.41 183.98 42.52 183.42 42.52C182.47 42.52 181.69 42.22 181.1 41.62ZM182.24 37.21C181.98 37.5 181.82 37.9 181.75 38.41C181.94 38.41 182.9 38.41 184.62 38.41C184.62 38.35 184.62 38.31 184.62 38.3C184.59 37.8 184.46 37.42 184.22 37.16C183.98 36.9 183.66 36.77 183.24 36.77C182.83 36.77 182.49 36.92 182.24 37.21ZM193.55 36.88L193.55 42.39L192.04 42.39L192.04 36.88L189.89 36.88L189.89 35.69L195.72 35.69L195.72 36.88L193.55 36.88ZM196.96 41.62C196.37 41.02 196.08 40.21 196.08 39.21C196.08 39.2 196.08 39.05 196.08 39.03C196.08 38.36 196.2 37.76 196.46 37.24C196.72 36.71 197.08 36.3 197.55 36C198.02 35.71 198.54 35.56 199.11 35.56C200.03 35.56 200.73 35.86 201.23 36.44C201.73 37.02 201.98 37.84 201.98 38.91C201.98 38.95 201.98 39.15 201.98 39.52C199.35 39.52 197.89 39.52 197.59 39.52C197.64 40.07 197.82 40.51 198.15 40.83C198.47 41.15 198.88 41.32 199.37 41.32C200.06 41.32 200.62 41.04 201.06 40.48C201.14 40.56 201.79 41.18 201.87 41.25C201.6 41.65 201.24 41.97 200.79 42.19C200.35 42.41 199.84 42.52 199.29 42.52C198.33 42.52 197.56 42.22 196.96 41.62ZM198.1 37.21C197.85 37.5 197.69 37.9 197.62 38.41C197.81 38.41 198.77 38.41 200.49 38.41C200.49 38.35 200.49 38.31 200.49 38.3C200.46 37.8 200.32 37.42 200.09 37.16C199.85 36.9 199.52 36.77 199.11 36.77C198.69 36.77 198.36 36.92 198.1 37.21ZM206.83 35.69L208.51 35.69L206.46 38.99L208.58 42.39L206.92 42.39L205.58 40.1L204.24 42.39L202.57 42.39L204.69 38.99L202.65 35.69L204.31 35.69L205.56 37.89L206.83 35.69ZM213.71 42.39L213.71 39.69L211.1 39.69L211.1 42.39L209.59 42.39L209.59 35.69L211.1 35.69L211.1 38.48L213.71 38.48L213.71 35.69L215.21 35.69L215.21 42.39L213.71 42.39ZM216.93 37.21C217.19 36.68 217.56 36.27 218.03 35.99C218.5 35.71 219.04 35.56 219.65 35.56C220.56 35.56 221.29 35.86 221.85 36.44C222.42 37.02 222.72 37.79 222.77 38.76C222.77 38.79 222.77 39.07 222.77 39.11C222.77 39.77 222.65 40.36 222.39 40.88C222.14 41.4 221.77 41.8 221.3 42.09C220.83 42.38 220.28 42.52 219.66 42.52C218.72 42.52 217.96 42.2 217.39 41.58C216.82 40.94 216.54 40.1 216.54 39.05C216.54 39.05 216.54 39.02 216.54 38.98C216.63 38.15 216.76 37.56 216.93 37.21ZM218.47 40.73C218.76 41.12 219.15 41.32 219.66 41.32C220.17 41.32 220.57 41.12 220.85 40.72C221.13 40.32 221.27 39.74 221.27 38.98C221.27 38.3 221.13 37.76 220.83 37.37C220.55 36.97 220.15 36.77 219.65 36.77C219.16 36.77 218.77 36.97 218.48 37.36C218.19 37.75 218.05 38.33 218.05 39.11C218.05 39.8 218.19 40.34 218.47 40.73ZM229.65 42.39L228.14 42.39L228.14 36.9L226.24 36.9C226.17 38.3 226.13 39.08 226.12 39.24C226.04 40.36 225.83 41.17 225.47 41.66C225.12 42.15 224.58 42.39 223.85 42.39C223.82 42.39 223.67 42.39 223.39 42.39L223.38 41.14C223.57 41.12 223.67 41.11 223.69 41.11C224.02 41.07 224.26 40.87 224.41 40.51C224.56 40.15 224.66 39.5 224.7 38.55C224.71 38.36 224.75 37.41 224.83 35.69L229.65 35.69L229.65 42.39ZM231.36 37.21C231.62 36.68 231.98 36.27 232.45 35.99C232.93 35.71 233.47 35.56 234.08 35.56C234.98 35.56 235.72 35.86 236.28 36.44C236.84 37.02 237.15 37.79 237.2 38.76C237.2 38.79 237.2 39.07 237.2 39.11C237.2 39.77 237.07 40.36 236.82 40.88C236.57 41.4 236.2 41.8 235.73 42.09C235.26 42.38 234.71 42.52 234.09 42.52C233.14 42.52 232.39 42.2 231.82 41.58C231.25 40.94 230.97 40.1 230.97 39.05C230.97 39.05 230.97 39.02 230.97 38.98C231.05 38.15 231.18 37.56 231.36 37.21ZM232.9 40.73C233.19 41.12 233.58 41.32 234.09 41.32C234.6 41.32 234.99 41.12 235.27 40.72C235.56 40.32 235.7 39.74 235.7 38.98C235.7 38.3 235.56 37.76 235.26 37.37C234.97 36.97 234.58 36.77 234.08 36.77C233.59 36.77 233.2 36.97 232.91 37.36C232.62 37.75 232.47 38.33 232.47 39.11C232.47 39.8 232.62 40.34 232.9 40.73ZM240.03 36.9L240.03 42.39L238.53 42.39L238.53 35.69L242.94 35.69L242.94 36.9L240.03 36.9ZM249.48 35.69L249.48 42.39L247.98 42.39L247.98 37.92L245.35 42.39L243.85 42.39L243.85 35.69L245.35 35.69L245.35 40.16L247.98 35.69L249.48 35.69ZM256.77 35.69L256.77 42.39L255.27 42.39L255.27 37.92L252.64 42.39L251.14 42.39L251.14 35.69L252.64 35.69L252.64 40.16L255.27 35.69L256.77 35.69Z" id="c37XxLcqD"></path></defs><g><g><g><use xlink:href="#aeiB0QRpL" opacity="1" fill="#00b2ff" fill-opacity="1"></use><g><use xlink:href="#aeiB0QRpL" opacity="1" fill-opacity="0" stroke="#000000" stroke-width="1" stroke-opacity="0"></use></g></g><g><use xlink:href="#n3UGVziyYC" opacity="1" fill="#00b2ff" fill-opacity="1"></use><g><use xlink:href="#n3UGVziyYC" opacity="1" fill-opacity="0" stroke="#000000" stroke-width="1" stroke-opacity="0"></use></g></g><g><use xlink:href="#a4ngi2b2dY" opacity="1" fill="#00b2ff" fill-opacity="1"></use><g><use xlink:href="#a4ngi2b2dY" opacity="1" fill-opacity="0" stroke="#000000" stroke-width="1" stroke-opacity="0"></use></g></g><g><use xlink:href="#k2miu5ZQQG" opacity="1" fill="#00b2ff" fill-opacity="1"></use><g><use xlink:href="#k2miu5ZQQG" opacity="1" fill-opacity="0" stroke="#000000" stroke-width="1" stroke-opacity="0"></use></g></g><g><use xlink:href="#dnc6Q66Zf" opacity="1" fill="#00b2ff" fill-opacity="1"></use><g><use xlink:href="#dnc6Q66Zf" opacity="1" fill-opacity="0" stroke="#000000" stroke-width="1" stroke-opacity="0"></use></g></g><g><use xlink:href="#c1WY5TbWHO" opacity="1" fill="#00b2ff" fill-opacity="1"></use><g><use xlink:href="#c1WY5TbWHO" opacity="1" fill-opacity="0" stroke="#000000" stroke-width="1" stroke-opacity="0"></use></g></g><g><use xlink:href="#g1zu7EDpO" opacity="1" fill="#00b2ff" fill-opacity="1"></use><g><use xlink:href="#g1zu7EDpO" opacity="1" fill-opacity="0" stroke="#000000" stroke-width="1" stroke-opacity="0"></use></g></g><g><use xlink:href="#g3QyVwr4cW" opacity="1" fill="#00b2ff" fill-opacity="1"></use><g><use xlink:href="#g3QyVwr4cW" opacity="1" fill-opacity="0" stroke="#000000" stroke-width="1" stroke-opacity="0"></use></g></g><g><use xlink:href="#b49KL3u7WD" opacity="1" fill="#ffffff" fill-opacity="1"></use><g><use xlink:href="#b49KL3u7WD" opacity="1" fill-opacity="0" stroke="#000000" stroke-width="1" stroke-opacity="0"></use></g></g><g><use xlink:href="#c37XxLcqD" opacity="1" fill="#788891" fill-opacity="1"></use><g><use xlink:href="#c37XxLcqD" opacity="1" fill-opacity="0" stroke="#000000" stroke-width="1" stroke-opacity="0"></use></g></g></g></g></svg>